<svg xmlns="http://www.w3.org/2000/svg" style="background: rgba(0, 0, 0, 0);" preserveAspectRatio="xMidYMid" viewBox="116.18 67.85 267.51 23.66"><defs><linearGradient id="editing-gradient-gradient" x1="0" x2="1" y1="0.5" y2="0.5" gradientUnits="objectBoundingBox"><stop offset="0" stop-color="#f0f"/><stop offset="1" stop-color="#0ff"/></linearGradient></defs><g><g transform="translate(116.01677307486534, 86.830002784729)"><path d="M12.27-13.78L12.27-13.78L12.27-13.78Q10.17-13.78 8.63-14.48L8.63-14.48L7.80-10.27L12.82-10.27L12.82-10.27Q12.82-8.89 12.13-8.02L12.13-8.02L12.13-8.02Q11.44-7.15 10.19-7.15L10.19-7.15L10.19-7.15Q8.84-7.15 7.59-7.64L7.59-7.64L7.59-7.64Q7.33-7.75 7.31-7.77L7.31-7.77L5.82 0L0.16 0L3.46-17.16L15.05-17.16L15.05-17.16Q15.05-15.57 14.31-14.68L14.31-14.68L14.31-14.68Q13.57-13.78 12.27-13.78ZM20.62-1.43L20.62-1.43L20.62-1.43Q19.81 0.52 17.24 0.52L17.24 0.52L17.24 0.52Q15.94 0.52 15.11-0.39L15.11-0.39L15.11-0.39Q14.43-1.14 14.43-2.00L14.43-2.00L14.43-2.00Q14.43-3.95 15.34-8.22L15.34-8.22L17.24-18.20L22.52-18.72L19.99-5.56L19.99-5.56Q19.55-3.64 19.55-2.96L19.55-2.96L19.55-2.96Q19.55-1.48 20.62-1.43ZM31.17-1.09L31.17-1.09L31.17-1.09Q29.93 0.52 26.83 0.52L26.83 0.52L26.83 0.52Q25.22 0.52 24.05-0.46L24.05-0.46L24.05-0.46Q22.88-1.43 22.88-2.83L22.88-2.83L22.88-2.83Q22.88-3.61 22.96-4.00L22.96-4.00L24.70-13.26L29.98-13.78L28.08-3.74L28.08-3.74Q27.98-3.17 27.98-2.83L27.98-2.83L27.98-2.83Q27.98-1.33 28.89-1.33L28.89-1.33L28.89-1.33Q29.90-1.33 30.63-2.70L30.63-2.70L30.63-2.70Q30.86-3.15 30.97-3.72L30.97-3.72L32.81-13.26L37.93-13.78L36.01-3.64L36.01-3.64Q35.93-3.25 35.93-2.83L35.93-2.83L35.93-2.83Q35.93-2.42 36.17-1.96L36.17-1.96L36.17-1.96Q36.40-1.51 37.15-1.40L37.15-1.40L37.15-1.40Q37.00-0.78 36.45-0.36L36.45-0.36L36.45-0.36Q35.31 0.52 34.07 0.52L34.07 0.52L34.07 0.52Q32.84 0.52 32.11 0.08L32.11 0.08L32.11 0.08Q31.38-0.36 31.17-1.09ZM49.76-4.39L49.76-4.39L49.76-4.39Q50.41-3.95 50.41-2.98L50.41-2.98L50.41-2.98Q50.41-2.00 49.92-1.38L49.92-1.38L49.92-1.38Q49.43-0.75 48.62-0.34L48.62-0.34L48.62-0.34Q46.96 0.52 45.16 0.52L45.16 0.52L45.16 0.52Q43.37 0.52 42.32 0.13L42.32 0.13L42.32 0.13Q41.26-0.26 40.56-0.99L40.56-0.99L40.56-0.99Q39.18-2.37 39.18-4.89L39.18-4.89L39.18-4.89Q39.18-8.81 41.31-11.21L41.31-11.21L41.31-11.21Q43.60-13.78 47.58-13.78L47.58-13.78L47.58-13.78Q50.05-13.78 51.27-12.74L51.27-12.74L51.27-12.74Q52.18-11.96 52.18-10.69L52.18-10.69L52.18-10.69Q52.18-6.11 44.28-6.11L44.28-6.11L44.28-6.11Q44.17-5.43 44.17-4.86L44.17-4.86L44.17-4.86Q44.17-3.67 44.71-3.21L44.71-3.21L44.71-3.21Q45.24-2.76 46.23-2.76L46.23-2.76L46.23-2.76Q47.22-2.76 48.27-3.21L48.27-3.21L48.27-3.21Q49.32-3.67 49.76-4.39ZM44.46-7.23L44.46-7.23L44.46-7.23Q46.31-7.23 47.37-8.37L47.37-8.37L47.37-8.37Q48.44-9.46 48.44-11.21L48.44-11.21L48.44-11.21Q48.44-11.80 48.22-12.13L48.22-12.13L48.22-12.13Q48.00-12.45 47.55-12.45L47.55-12.45L47.55-12.45Q47.11-12.45 46.73-12.29L46.73-12.29L46.73-12.29Q46.36-12.12 45.97-11.54L45.97-11.54L45.97-11.54Q45.01-10.24 44.46-7.23ZM64.06 0.52L64.06 0.52L64.06 0.52Q60.92 0.52 60.92-1.92L60.92-1.92L60.92-1.92Q60.94-2.60 61.15-3.74L61.15-3.74L61.62-6.14L61.62-6.14Q62.32-9.52 62.32-10.27L62.32-10.27L62.32-10.27Q62.32-11.78 61.44-11.78L61.44-11.78L61.44-11.78Q59.96-11.78 59.18-7.90L59.18-7.90L57.64 0L52.42 0.52L55.12-13.29L59.38-13.78L58.97-11.23L58.97-11.23Q60.19-13.78 63.93-13.78L63.93-13.78L63.93-13.78Q65.75-13.78 66.52-13.01L66.52-13.01L66.52-13.01Q67.29-12.25 67.29-10.53L67.29-10.53L67.29-10.53Q67.29-8.92 66.46-5.15L66.46-5.15L66.46-5.15Q66.07-3.46 66.07-2.82L66.07-2.82L66.07-2.82Q66.07-2.18 66.42-1.82L66.42-1.82L66.42-1.82Q66.77-1.46 67.29-1.40L67.29-1.40L67.29-1.40Q67.03-0.52 66.13 0L66.13 0L66.13 0Q65.23 0.52 64.06 0.52ZM69.78-2.60L69.78-2.60L69.78-2.60Q69.78-3.30 70.15-5.07L70.15-5.07L71.53-12.09L69.99-12.09L70.10-12.87L70.10-12.87Q73.22-13.81 76.23-16.09L76.23-16.09L77.48-16.09L76.86-13.26L78.88-13.26L78.65-12.09L76.65-12.09L75.32-5.07L75.32-5.07Q74.98-3.46 74.98-2.91L74.98-2.91L74.98-2.91Q74.98-1.66 76.08-1.40L76.08-1.40L76.08-1.40Q75.82-0.52 74.88 0L74.88 0L74.88 0Q73.94 0.52 72.62 0.52L72.62 0.52L72.62 0.52Q71.29 0.52 70.54-0.31L70.54-0.31L70.54-0.31Q69.78-1.14 69.78-2.60ZM95.21-4.00L95.21-4.00L95.21-4.00Q95.71-3.38 95.71-2.37L95.71-2.37L95.71-2.37Q95.71-0.96 94.67-0.22L94.67-0.22L94.67-0.22Q93.63 0.52 91.99 0.52L91.99 0.52L91.99 0.52Q91.05 0.52 89.62 0.31L89.62 0.31L89.62 0.31Q86.81-0.13 85.96-0.13L85.96-0.13L85.96-0.13Q85.10-0.13 84.76-0.09L84.76-0.09L84.76-0.09Q84.42-0.05 83.88 0L83.88 0L87.07-17.16L98.28-17.16L98.28-17.16Q98.28-15.57 97.51-14.74L97.51-14.74L97.51-14.74Q96.75-13.91 95.24-13.91L95.24-13.91L95.24-13.91Q93.73-13.91 92.20-14.61L92.20-14.61L91.39-10.06L96.02-10.06L96.02-10.06Q96.02-8.68 95.34-7.92L95.34-7.92L95.34-7.92Q94.67-7.15 93.53-7.15L93.53-7.15L93.53-7.15Q92.40-7.15 91.70-7.41L91.70-7.41L91.70-7.41Q91-7.67 90.92-7.75L90.92-7.75L89.99-2.83L89.99-2.83Q90.61-2.76 91.78-2.76L91.78-2.76L91.78-2.76Q93.78-2.76 95.21-4.00ZM116.82 0.52L116.82 0.52L116.82 0.52Q113.67 0.52 113.67-1.92L113.67-1.92L113.67-1.92Q113.67-2.99 114.13-5.06L114.13-5.06L114.13-5.06Q114.58-7.12 114.74-7.96L114.74-7.96L114.74-7.96Q115.10-9.85 115.10-10.45L115.10-10.45L115.10-10.45Q115.10-11.78 114.11-11.78L114.11-11.78L114.11-11.78Q113.46-11.78 112.84-10.88L112.84-10.88L112.84-10.88Q112.22-9.98 111.93-8.19L111.93-8.19L110.32 0L105.25 0.52L106.65-6.55L106.65-6.55Q106.89-7.72 107.09-9.05L107.09-9.05L107.09-9.05Q107.30-10.37 107.30-10.58L107.30-10.58L107.30-10.58Q107.30-11.78 106.42-11.78L106.42-11.78L106.42-11.78Q105.82-11.78 105.17-10.89L105.17-10.89L105.17-10.89Q104.52-10.01 104.16-8.19L104.16-8.19L102.57 0L97.45 0.52L100.18-13.26L104.42-13.78L103.97-11.15L103.97-11.15Q104.65-12.56 105.90-13.17L105.90-13.17L105.90-13.17Q107.15-13.78 109.10-13.78L109.10-13.78L109.10-13.78Q110.21-13.78 110.94-13.23L110.94-13.23L110.94-13.23Q111.67-12.69 111.90-11.80L111.90-11.80L111.90-11.80Q112.35-12.71 113.48-13.25L113.48-13.25L113.48-13.25Q114.61-13.78 116.00-13.78L116.00-13.78L116.00-13.78Q117.39-13.78 118.08-13.48L118.08-13.48L118.08-13.48Q118.77-13.18 119.18-12.69L119.18-12.69L119.18-12.69Q119.89-11.78 119.89-10.11L119.89-10.11L119.89-10.11Q119.89-8.48 119.18-5.07L119.18-5.07L119.18-5.07Q118.82-3.41 118.82-2.80L118.82-2.80L118.82-2.80Q118.82-2.18 119.17-1.82L119.17-1.82L119.17-1.82Q119.52-1.46 120.04-1.40L120.04-1.40L120.04-1.40Q119.78-0.52 118.88 0L118.88 0L118.88 0Q117.99 0.52 116.82 0.52ZM127.71 0.52L127.71 0.52L127.71 0.52Q121.99 0.52 121.99-4.86L121.99-4.86L121.99-4.86Q121.99-8.68 124.10-11.15L124.10-11.15L124.10-11.15Q126.33-13.78 130.21-13.78L130.21-13.78L130.21-13.78Q133.02-13.78 134.45-12.48L134.45-12.48L134.45-12.48Q135.88-11.18 135.88-8.45L135.88-8.45L135.88-8.45Q135.88-4.29 133.64-1.87L133.64-1.87L133.64-1.87Q131.46 0.52 127.71 0.52ZM128.39-10.79L128.39-10.79L128.39-10.79Q128.08-10.09 127.83-9.04L127.83-9.04L127.83-9.04Q127.58-7.98 127.27-6.32L127.27-6.32L127.27-6.32Q126.96-4.65 126.96-2.60L126.96-2.60L126.96-2.60Q126.96-1.92 127.18-1.48L127.18-1.48L127.18-1.48Q127.40-1.04 128.00-1.04L128.00-1.04L128.00-1.04Q128.60-1.04 128.97-1.33L128.97-1.33L128.97-1.33Q129.35-1.61 129.64-2.29L129.64-2.29L129.64-2.29Q130.16-3.48 130.57-5.71L130.57-5.71L130.57-5.71Q130.99-7.93 131.03-8.89L131.03-8.89L131.03-8.89Q131.07-9.85 131.07-10.57L131.07-10.57L131.07-10.57Q131.07-11.28 130.86-11.75L130.86-11.75L130.86-11.75Q130.65-12.22 130.06-12.22L130.06-12.22L130.06-12.22Q129.48-12.22 129.09-11.86L129.09-11.86L129.09-11.86Q128.70-11.49 128.39-10.79ZM133.80 3.09L133.80 3.09L133.80 3.09Q135.15 2.99 136.14 1.30L136.14 1.30L136.14 1.30Q136.89 0 137.38-2.39L137.38-2.39L139.49-13.26L144.72-13.78L142.51-2.39L142.51-2.39Q141.65 1.95 140.32 3.38L140.32 3.38L140.32 3.38Q139.62 4.16 138.71 4.42L138.71 4.42L138.71 4.42Q137.80 4.68 136.76 4.68L136.76 4.68L136.76 4.68Q134.58 4.68 133.80 3.09ZM139.91-16.87L139.91-16.87L139.91-16.87Q139.91-17.89 140.75-18.43L140.75-18.43L140.75-18.43Q141.60-18.98 142.82-18.98L142.82-18.98L142.82-18.98Q144.04-18.98 144.78-18.43L144.78-18.43L144.78-18.43Q145.52-17.89 145.52-16.87L145.52-16.87L145.52-16.87Q145.52-15.86 144.70-15.34L144.70-15.34L144.70-15.34Q143.88-14.82 142.66-14.82L142.66-14.82L142.66-14.82Q141.44-14.82 140.67-15.34L140.67-15.34L140.67-15.34Q139.91-15.86 139.91-16.87ZM151.89-1.43L151.89-1.43L151.89-1.43Q151.09 0.52 148.51 0.52L148.51 0.52L148.51 0.52Q147.19 0.52 146.35-0.39L146.35-0.39L146.35-0.39Q145.65-1.20 145.65-2.00L145.65-2.00L145.65-2.00Q145.65-4.11 146.61-8.22L146.61-8.22L147.58-13.26L152.85-13.78L151.27-5.56L151.27-5.56Q150.83-3.64 150.83-2.96L150.83-2.96L150.83-2.96Q150.83-1.48 151.89-1.43ZM148.04-16.87L148.04-16.87L148.04-16.87Q148.04-17.89 148.89-18.43L148.89-18.43L148.89-18.43Q149.73-18.98 150.96-18.98L150.96-18.98L150.96-18.98Q152.18-18.98 152.92-18.43L152.92-18.43L152.92-18.43Q153.66-17.89 153.66-16.87L153.66-16.87L153.66-16.87Q153.66-15.86 152.84-15.34L152.84-15.34L152.84-15.34Q152.02-14.82 150.80-14.82L150.80-14.82L150.80-14.82Q149.58-14.82 148.81-15.34L148.81-15.34L148.81-15.34Q148.04-15.86 148.04-16.87ZM159.20-0.13L159.20-0.13L162.47-17.16L162.47-17.16Q165.54-17.42 167.52-17.42L167.52-17.42L167.52-17.42Q169.49-17.42 170.77-17.25L170.77-17.25L170.77-17.25Q172.04-17.08 172.90-16.64L172.90-16.64L172.90-16.64Q174.62-15.81 174.62-13.52L174.62-13.52L174.62-13.52Q174.62-12.19 173.47-11.08L173.47-11.08L173.47-11.08Q172.41-10.06 171.24-9.83L171.24-9.83L171.24-9.83Q172.48-9.62 173.37-8.68L173.37-8.68L173.37-8.68Q174.30-7.70 174.30-6.16L174.30-6.16L174.30-6.16Q174.30-3.20 172.09-1.47L172.09-1.47L172.09-1.47Q169.88 0.26 165.54 0.26L165.54 0.26L165.54 0.26Q162.55 0.26 159.20-0.13ZM166.27-8.37L164.97-1.64L164.97-1.64Q165.20-1.61 165.26-1.61L165.26-1.61L165.49-1.61L165.49-1.61Q167.62-1.61 168.53-3.02L168.53-3.02L168.53-3.02Q169.21-4.11 169.21-6.11L169.21-6.11L169.21-6.11Q169.21-7.18 168.52-7.75L168.52-7.75L168.52-7.75Q167.83-8.32 166.27-8.37L166.27-8.37ZM170.22-13.49L170.22-13.49L170.22-13.49Q170.22-15.65 168.14-15.65L168.14-15.65L167.91-15.65L167.91-15.65Q167.80-15.65 167.65-15.63L167.65-15.63L166.61-10.14L166.87-10.14L166.87-10.14Q170.22-10.22 170.22-13.49ZM184.16-7.31L184.16-7.31L184.16-7.31Q185.09-8.97 185.09-10.66L185.09-10.66L185.09-10.66Q185.09-11.78 184.29-11.78L184.29-11.78L184.29-11.78Q183.66-11.78 183.01-10.71L183.01-10.71L183.01-10.71Q182.34-9.65 182.13-8.27L182.13-8.27L180.78 0L175.40 0.52L178.05-13.26L182.34-13.78L181.87-11.15L181.87-11.15Q183.14-13.78 186.00-13.78L186.00-13.78L186.00-13.78Q187.51-13.78 188.33-13.00L188.33-13.00L188.33-13.00Q189.15-12.22 189.15-10.62L189.15-10.62L189.15-10.62Q189.15-9.02 188.10-8.01L188.10-8.01L188.10-8.01Q187.04-6.99 185.25-6.99L185.25-6.99L185.25-6.99Q184.47-6.99 184.16-7.31ZM195.23 0.52L195.23 0.52L195.23 0.52Q189.51 0.52 189.51-4.86L189.51-4.86L189.51-4.86Q189.51-8.68 191.62-11.15L191.62-11.15L191.62-11.15Q193.86-13.78 197.73-13.78L197.73-13.78L197.73-13.78Q200.54-13.78 201.97-12.48L201.97-12.48L201.97-12.48Q203.40-11.18 203.40-8.45L203.40-8.45L203.40-8.45Q203.40-4.29 201.16-1.87L201.16-1.87L201.16-1.87Q198.98 0.52 195.23 0.52ZM195.91-10.79L195.91-10.79L195.91-10.79Q195.60-10.09 195.35-9.04L195.35-9.04L195.35-9.04Q195.10-7.98 194.79-6.32L194.79-6.32L194.79-6.32Q194.48-4.65 194.48-2.60L194.48-2.60L194.48-2.60Q194.48-1.92 194.70-1.48L194.70-1.48L194.70-1.48Q194.92-1.04 195.52-1.04L195.52-1.04L195.52-1.04Q196.12-1.04 196.49-1.33L196.49-1.33L196.49-1.33Q196.87-1.61 197.16-2.29L197.16-2.29L197.16-2.29Q197.68-3.48 198.09-5.71L198.09-5.71L198.09-5.71Q198.51-7.93 198.55-8.89L198.55-8.89L198.55-8.89Q198.59-9.85 198.59-10.57L198.59-10.57L198.59-10.57Q198.59-11.28 198.38-11.75L198.38-11.75L198.38-11.75Q198.17-12.22 197.59-12.22L197.59-12.22L197.59-12.22Q197.00-12.22 196.61-11.86L196.61-11.86L196.61-11.86Q196.22-11.49 195.91-10.79ZM224.33-4.34L224.33-4.34Q222.61-1.98 220.96-0.73L220.96-0.73L220.96-0.73Q219.31 0.52 217.61 0.52L217.61 0.52L217.61 0.52Q215.90 0.52 215.31 0.18L215.31 0.18L215.31-5.54L215.31-5.54Q213.82-1.59 211.17-0.05L211.17-0.05L211.17-0.05Q210.21 0.52 209.30 0.52L209.30 0.52L209.30 0.52Q207.56 0.52 206.80 0.18L206.80 0.18L206.80 0.18Q206.62-5.77 206.47-7.42L206.47-7.42L206.47-7.42Q206.31-9.07 206.18-10.09L206.18-10.09L206.18-10.09Q205.92-12.12 205.04-12.95L205.04-12.95L205.04-12.95Q206.15-13.78 207.71-13.78L207.71-13.78L207.71-13.78Q210.73-13.78 211.15-10.04L211.15-10.04L211.15-10.04Q211.25-9.15 211.25-8.22L211.25-8.22L211.25-8.22Q211.25-6.81 210.94-1.92L210.94-1.92L210.94-1.92Q211.56-2.21 212.22-3.24L212.22-3.24L212.22-3.24Q212.89-4.26 213.43-5.67L213.43-5.67L213.43-5.67Q214.66-8.92 214.66-11.73L214.66-11.73L214.66-11.73Q214.66-12.17 214.54-12.64L214.54-12.64L214.54-12.64Q214.42-13.10 214.29-13.23L214.29-13.23L214.29-13.23Q215.20-13.78 216.59-13.78L216.59-13.78L216.59-13.78Q217.98-13.78 218.65-12.83L218.65-12.83L218.65-12.83Q219.31-11.88 219.49-10.14L219.49-10.14L219.49-10.14Q219.70-7.93 219.70-6.60L219.70-6.60L219.70-6.60Q219.70-4.76 219.52-2.03L219.52-2.03L219.52-2.03Q220.82-2.96 221.88-6.03L221.88-6.03L221.88-6.03Q222.95-9.10 222.95-11.28L222.95-11.28L222.95-11.28Q222.95-12.25 222.79-12.82L222.79-12.82L222.79-12.82Q223.65-13.78 225.13-13.78L225.13-13.78L225.13-13.78Q226.04-13.78 226.71-13.29L226.71-13.29L226.71-13.29Q227.37-12.79 227.37-11.87L227.37-11.87L227.37-11.87Q227.37-10.95 227.10-9.96L227.10-9.96L227.10-9.96Q226.82-8.97 226.38-7.96L226.38-7.96L226.38-7.96Q225.52-5.93 224.33-4.34L224.33-4.34ZM235.85-9.13L235.85-9.13L235.85-9.13Q236.21-10.09 236.21-10.92L236.21-10.92L236.21-10.92Q236.21-12.45 234.96-12.45L234.96-12.45L234.96-12.45Q234.31-12.45 233.78-11.87L233.78-11.87L233.78-11.87Q233.25-11.28 233.25-10.56L233.25-10.56L233.25-10.56Q233.25-10.04 233.66-9.62L233.66-9.62L233.66-9.62Q234.26-9.05 235.79-8.11L235.79-8.11L235.79-8.11Q237.33-7.18 237.91-6.41L237.91-6.41L237.91-6.41Q238.50-5.64 238.50-4.59L238.50-4.59L238.50-4.59Q238.50-3.54 237.99-2.57L237.99-2.57L237.99-2.57Q237.48-1.61 236.57-0.94L236.57-0.94L236.57-0.94Q234.62 0.52 231.50 0.52L231.50 0.52L231.50 0.52Q229.81 0.52 228.51-0.36L228.51-0.36L228.51-0.36Q227.21-1.22 227.21-2.24L227.21-2.24L227.21-2.24Q227.21-3.25 227.95-3.85L227.95-3.85L227.95-3.85Q228.70-4.45 229.79-4.45L229.79-4.45L229.79-4.45Q230.88-4.45 231.56-4.03L231.56-4.03L231.56-4.03Q231.22-3.17 231.22-2.60L231.22-2.60L231.22-2.60Q231.22-0.88 232.67-0.88L232.67-0.88L232.67-0.88Q233.30-0.88 233.71-1.27L233.71-1.27L233.71-1.27Q234.13-1.66 234.13-2.34L234.13-2.34L234.13-2.34Q234.13-3.67 231.89-5.07L231.89-5.07L231.89-5.07Q230.07-6.27 229.66-6.73L229.66-6.73L229.66-6.73Q228.96-7.57 228.96-8.61L228.96-8.61L228.96-8.61Q228.96-9.65 229.45-10.63L229.45-10.63L229.45-10.63Q229.94-11.62 230.85-12.32L230.85-12.32L230.85-12.32Q232.75-13.78 236.05-13.78L236.05-13.78L236.05-13.78Q237.74-13.78 238.75-13.10L238.75-13.10L238.75-13.10Q239.75-12.43 239.75-11.28L239.75-11.28L239.75-11.28Q239.75-10.14 239.06-9.49L239.06-9.49L239.06-9.49Q238.37-8.84 237.12-8.84L237.12-8.84L237.12-8.84Q236.26-8.84 235.85-9.13ZM251.24-4.39L251.24-4.39L251.24-4.39Q251.89-3.95 251.89-2.98L251.89-2.98L251.89-2.98Q251.89-2.00 251.39-1.38L251.39-1.38L251.39-1.38Q250.90-0.75 250.09-0.34L250.09-0.34L250.09-0.34Q248.43 0.52 246.64 0.52L246.64 0.52L246.64 0.52Q244.84 0.52 243.79 0.13L243.79 0.13L243.79 0.13Q242.74-0.26 242.03-0.99L242.03-0.99L242.03-0.99Q240.66-2.37 240.66-4.89L240.66-4.89L240.66-4.89Q240.66-8.81 242.79-11.21L242.79-11.21L242.79-11.21Q245.08-13.78 249.05-13.78L249.05-13.78L249.05-13.78Q251.52-13.78 252.75-12.74L252.75-12.74L252.75-12.74Q253.66-11.96 253.66-10.69L253.66-10.69L253.66-10.69Q253.66-6.11 245.75-6.11L245.75-6.11L245.75-6.11Q245.65-5.43 245.65-4.86L245.65-4.86L245.65-4.86Q245.65-3.67 246.18-3.21L246.18-3.21L246.18-3.21Q246.71-2.76 247.70-2.76L247.70-2.76L247.70-2.76Q248.69-2.76 249.74-3.21L249.74-3.21L249.74-3.21Q250.80-3.67 251.24-4.39ZM245.93-7.23L245.93-7.23L245.93-7.23Q247.78-7.23 248.85-8.37L248.85-8.37L248.85-8.37Q249.91-9.46 249.91-11.21L249.91-11.21L249.91-11.21Q249.91-11.80 249.69-12.13L249.69-12.13L249.69-12.13Q249.47-12.45 249.03-12.45L249.03-12.45L249.03-12.45Q248.59-12.45 248.21-12.29L248.21-12.29L248.21-12.29Q247.83-12.12 247.44-11.54L247.44-11.54L247.44-11.54Q246.48-10.24 245.93-7.23ZM262.68-7.31L262.68-7.31L262.68-7.31Q263.61-8.97 263.61-10.66L263.61-10.66L263.61-10.66Q263.61-11.78 262.81-11.78L262.81-11.78L262.81-11.78Q262.18-11.78 261.53-10.71L261.53-10.71L261.53-10.71Q260.86-9.65 260.65-8.27L260.65-8.27L259.30 0L253.92 0.52L256.57-13.26L260.86-13.78L260.39-11.15L260.39-11.15Q261.66-13.78 264.52-13.78L264.52-13.78L264.52-13.78Q266.03-13.78 266.85-13.00L266.85-13.00L266.85-13.00Q267.67-12.22 267.67-10.62L267.67-10.62L267.67-10.62Q267.67-9.02 266.62-8.01L266.62-8.01L266.62-8.01Q265.56-6.99 263.77-6.99L263.77-6.99L263.77-6.99Q262.99-6.99 262.68-7.31Z" fill="url(#editing-gradient-gradient)"/></g></g><style>text {
  font-size: 64px;
  font-family: Arial Black;
  dominant-baseline: central;
  text-anchor: middle;
}</style></svg>